<svg id="treemap-svg" width="100%" height="100%"><defs><clipPath id="taiwan-clip"><path d="M596.814,202.365L587.212,194.562L588.993,188.579L592.315,174.933L593.734,171.12L596.874,167.384L595.123,161.777L596.904,157.648L594.247,158.194L594.006,155.583L595.938,155.427L595.093,146.851L596.21,143.458L598.837,139.596L597.84,139.205L597.84,134.795L599.018,131.359L597.388,131.906L602.491,127.141L603.638,127.492L605.45,125.461L605.54,125.383L605.54,125.305L606.023,125.266L607.231,124.719L609.768,119.364L608.651,118.817L610.583,114.868L612.123,114.555L614.871,106.809L618.826,105.987L619.098,103.208L614.599,105.596L619.34,99.958L621.272,99.762L622.993,96.551L621.544,95.062L624.352,89.968L623.99,88.047L627.795,86.91L629.335,82.009L633.803,75.339L637.034,72.002L637.034,71.924L641.896,60.886L644.312,60.218L646.878,55.973L649.596,55.383L652.797,52.237L654.246,49.563L657.386,39.408L658.654,39.251L661.372,33.264L662.822,31.688L665.932,25.342L667.713,23.055L672.031,20.413L677.708,18.835L680.788,16.783L686.465,16.033L693.138,14.297L696.731,11.652L696.701,9.797L699.509,4.781L704.491,0.79L704.491,0.751L706.545,0L706.605,0L706.635,0L706.726,0.04L706.877,0.119L706.877,0.198L710.259,0.395L713.913,3.003L714.516,5.61L717.868,8.573L717.898,8.573L719.318,7.743L719.318,7.664L719.348,7.506L719.408,7.506L719.408,7.467L719.68,7.467L719.167,8.573L719.016,8.77L720.254,10.942L714.094,13.823L715.17,15.896L714.396,13.705L720.284,10.942L722.609,12.244L725.93,13.073L726.112,13.073L727.803,14.455L731.124,15.205L732.302,15.402L732.453,15.283L733.479,15.402L737.133,15.757L736.952,18.006L736.801,18.282L737.888,20.689L737.797,22.858L739.76,24.435L743.746,25.027L743.836,24.987L743.987,25.382L743.987,25.46L742.78,26.564L742.357,26.84L742.206,27.116L740.756,27.865L736.801,28.141L740.694,27.869L740.666,27.944L738.824,28.732L737.224,29.836L737.042,30.309L737.042,30.388L736.982,30.427L736.197,30.86L735.865,31.136L735.865,31.215L735.865,31.412L735.865,31.491L735.865,31.53L734.325,33.54L734.325,33.579L734.264,33.658L734.174,33.737L734.144,33.737L732.151,35.706L732.121,35.706L732.121,35.785L732.03,35.785L731.969,35.825L731.879,35.864L731.788,35.864L731.517,36.337L731.456,36.376L731.456,36.455L731.426,36.455L730.158,38.385L728.98,45.471L730.762,56.052L732.392,60.218L734.234,61.319L733.389,67.094L732.453,67.722L732.392,67.722L731.003,68.311L731.607,71.531L727.47,76.163L725.236,84.597L725.417,86.361L722.216,91.927L716.691,96.747L716.268,102.66L713.067,106.457L713.037,108.766L715.362,112.834L712.131,117.644L712.524,119.286L711.467,125.734L709.474,131.008L708.93,136.161L707.722,138.269L705.669,150.711L704.582,152.582L704.433,157.921L704.612,157.921L704.612,157.999L704.673,157.999L703.374,162.868L701.623,167.267L700.777,172.988L698.241,175.633L697.214,181.078L697.154,181.156L697.124,181.156L695.584,182.516L695.795,189.24L697.214,189.862L695.856,190.716L695.795,190.716L695.252,190.872L695.01,191.144L694.95,191.183L694.406,192.154L694.406,192.192L694.406,192.27L694.346,192.27L692.383,193.086L692.383,193.358L688.669,202.792L685.589,207.37L684.744,208.65L684.582,208.986L684.562,209.038L684.502,209.155L682.358,212.218L679.006,213.614L679.157,215.514L679.188,215.553L679.339,218.653L676.983,222.025L673.481,225.163L666.898,229.074L664.573,236.119L662.489,238.054L659.591,247.53L655.544,257.925L655.665,265.493L655.424,273.52L656.027,283.662L651.528,288.017L651.287,290.829L653.159,295.297L649.777,292.216L644.523,290.29L641.986,293.487L641.292,288.749L639.088,283.739L640.447,281.927L641.201,278.881L638.937,268.813L636.129,264.876L635.525,260.783L629.576,253.636L620.366,248.342L618.072,245.635L616.199,245.442L609.103,239.679L604.665,233.371L604.333,229.887L606.114,227.331L599.592,214.157L598.263,208.146ZM708.991,281.812L711.708,284.895L711.708,284.934L711.708,285.011L711.708,285.088L710.923,286.475L707.209,284.471L707.149,284.471L706.786,284.548L706.726,284.548L704.431,282.467L704.522,279.537L704.582,279.614L709.172,279.383L709.232,280.655L709.232,280.732L708.991,281.734ZM704.25,229.926L704.34,230.274L704.019,231.434L700.777,228.803L702.982,228.183L704.582,229.074L704.733,229.268L704.582,229.422ZM612.908,258.968L613.15,257.114L615.294,256.573ZM586.366,159.635L585.853,162.05L584.101,160.219L590.443,155.31L589.144,158.116ZM549.588,152.933L549.678,150.165L552.336,150.75L552.97,148.879L552.909,148.879L553.392,147.709L551.037,143.614L548.591,144.004L546.115,146.461L545.542,151.647L543.911,148.684L545.3,145.018L547.293,145.213L549.014,142.6L551.309,141.898L554.51,150.36L556.986,147.865L560.036,152.27L556.05,152.115L553.574,154.024L553,156.518L550.554,156.596L552.577,152.933Z"></path></clipPath></defs><g clip-path="url(#taiwan-clip)"><g class="cell"><path d="M667.6661219609498,73.72608195234517L670.973594416826,112.20848472385043L715.2801094016552,128.5504132254212L733.3887070800994,67.09380834206874L734.1509116596762,64.09973600383054L703.4574067379717,54.775924424426584Z" fill="rgb(0, 0, 0)"></path><text class="country-label" transform="translate(699.9758938458406,89.38351448241464)" style="fill: white; stroke: none;"><tspan x="0" dy="-0.5em" style="font-size: 8px; font-weight: bold;">Taiwan</tspan><tspan x="0" dy="1.2em" style="font-size: 7px; font-weight: normal;">-3.845</tspan></text></g><g class="cell"><path d="M715.2801094016552,128.55041322542118L670.973594416826,112.20848472385043L647.9278134533369,128.32055742091603L645.4222470025574,155.60330414915708L701.4510829971422,175.48309276003144Z" fill="rgb(12, 54, 68)"></path><text class="country-label" transform="translate(680.0193076709676,142.61518058439444)" style="fill: white; stroke: none;"><tspan x="0" dy="-0.5em" style="font-size: 8px; font-weight: bold;">Belarus</tspan><tspan x="0" dy="1.2em" style="font-size: 7px; font-weight: normal;">-3.326</tspan></text></g><g class="cell"><path d="M636.444292955888,164.40417380459596L593.6221792684888,155.09002960893932L587.2116182903228,194.56167782605826L603.8930358331974,231.6553018209405L615.3938649280367,227.10984208103582L640.0177879305726,194.46104885678173Z" fill="rgb(13, 60, 75)"></path><text class="country-label" transform="translate(612.4645351768053,189.82474527820747)" style="fill: white; stroke: none;"><tspan x="0" dy="-0.5em" style="font-size: 8px; font-weight: bold;">Latvia</tspan><tspan x="0" dy="1.2em" style="font-size: 7px; font-weight: normal;">-3.276</tspan></text></g><g class="cell"><path d="M667.6661219609498,73.72608195234517L643.1102348825448,59.09059976420055L641.8958850919719,60.88638794192457L623.9898674365172,88.04721896375199L611.9579059318912,107.88395749379086L647.9278134533369,128.32055742091603L670.973594416826,112.20848472385043Z" fill="rgb(253, 255, 245)"></path><text class="country-label" transform="translate(645.5883127484291,95.81804160102459)" style="fill: black; stroke: none;"><tspan x="0" dy="-0.5em" style="font-size: 8px; font-weight: bold;">Portugal</tspan><tspan x="0" dy="1.2em" style="font-size: 7px; font-weight: normal;">2.859</tspan></text></g><g class="cell"><path d="M604.6647157532934,233.37124740691206L641.986485039155,293.48691491292925L653.1589141708337,295.296875L672.3876214317194,249.27795888678872L615.3938649280367,227.10984208103582L603.8930358331974,231.6553018209405Z" fill="rgb(161, 198, 177)"></path><text class="country-label" transform="translate(640.2965362456589,258.1785445060298)" style="fill: black; stroke: none;"><tspan x="0" dy="-0.5em" style="font-size: 8px; font-weight: bold;">Malawi</tspan><tspan x="0" dy="1.2em" style="font-size: 7px; font-weight: normal;">2.645</tspan></text></g><g class="cell"><path d="M615.3938649280367,227.10984208103582L672.3876214317194,249.27795888678872L688.6347519267531,210.39467228892934L640.0177879305726,194.46104885678173Z" fill="rgb(29, 127, 160)"></path><text class="country-label" transform="translate(654.1169635137943,220.98780549469853)" style="fill: white; stroke: none;"><tspan x="0" dy="-0.5em" style="font-size: 8px; font-weight: bold;">Syria</tspan><tspan x="0" dy="1.2em" style="font-size: 7px; font-weight: normal;">-2.630</tspan></text></g><g class="cell"><path d="M734.1509116596762,64.09973600383053L743.9873895752517,25.460337577405014L743.9873895752517,25.381516657900647L743.8364161777554,24.987227859860013L737.1329746074334,15.756990510119977L710.2588348758145,0.39520875372772757L706.6353937925269,0L706.5447938453472,2.0649486747192632e-18L704.4914601873243,0.7509017075904065L689.9894198000833,9.534972480001297L703.4574067379717,54.775924424426584Z" fill="rgb(29, 129, 162)"></path><text class="country-label" transform="translate(717.554731551809,30.94489957088126)" style="fill: white; stroke: none;"><tspan x="0" dy="-0.5em" style="font-size: 8px; font-weight: bold;">Kosovo</tspan><tspan x="0" dy="1.2em" style="font-size: 7px; font-weight: normal;">-2.612</tspan></text></g><g class="cell"><path d="M636.444292955888,164.40417380459596L640.0177879305726,194.46104885678173L688.6347519267531,210.39467228892934L697.2143515238822,189.86162923052444L701.4510829971421,175.4830927600315L645.4222470025574,155.60330414915708Z" fill="rgb(144, 187, 165)"></path><text class="country-label" transform="translate(667.1774934277458,182.74796507520662)" style="fill: black; stroke: none;"><tspan x="0" dy="-0.5em" style="font-size: 8px; font-weight: bold;">Trinidad and Tobago</tspan><tspan x="0" dy="1.2em" style="font-size: 7px; font-weight: normal;">2.606</tspan></text></g><g class="cell"><path d="M647.9278134533369,128.32055742091603L611.9579059318911,107.88395749379086L597.3875275464397,131.9057087439759L593.6221792684888,155.09002960893932L636.444292955888,164.40417380459596L645.4222470025574,155.60330414915708Z" fill="rgb(71, 142, 110)"></path><text class="country-label" transform="translate(621.408160784401,138.93176459149421)" style="fill: black; stroke: none;"><tspan x="0" dy="-0.5em" style="font-size: 8px; font-weight: bold;">Switzerland</tspan><tspan x="0" dy="1.2em" style="font-size: 7px; font-weight: normal;">2.434</tspan></text></g><g class="cell"><path d="M672.0311456615726,20.412528104644267L667.7132110411276,23.055074405631274L665.9316772246405,25.342105982018065L643.1102348825448,59.09059976420056L667.6661219609498,73.72608195234517L703.4574067379717,54.775924424426584L689.9894198000833,9.534972480001294Z" fill="rgb(57, 133, 100)"></path><text class="country-label" transform="translate(675.7694341215473,44.926391566377106)" style="fill: black; stroke: none;"><tspan x="0" dy="-0.5em" style="font-size: 8px; font-weight: bold;">Seychelles</tspan><tspan x="0" dy="1.2em" style="font-size: 7px; font-weight: normal;">2.402</tspan></text></g></g><path class="taiwan-outline" d="M596.814,202.365L587.212,194.562L588.993,188.579L592.315,174.933L593.734,171.12L596.874,167.384L595.123,161.777L596.904,157.648L594.247,158.194L594.006,155.583L595.938,155.427L595.093,146.851L596.21,143.458L598.837,139.596L597.84,139.205L597.84,134.795L599.018,131.359L597.388,131.906L602.491,127.141L603.638,127.492L605.45,125.461L605.54,125.383L605.54,125.305L606.023,125.266L607.231,124.719L609.768,119.364L608.651,118.817L610.583,114.868L612.123,114.555L614.871,106.809L618.826,105.987L619.098,103.208L614.599,105.596L619.34,99.958L621.272,99.762L622.993,96.551L621.544,95.062L624.352,89.968L623.99,88.047L627.795,86.91L629.335,82.009L633.803,75.339L637.034,72.002L637.034,71.924L641.896,60.886L644.312,60.218L646.878,55.973L649.596,55.383L652.797,52.237L654.246,49.563L657.386,39.408L658.654,39.251L661.372,33.264L662.822,31.688L665.932,25.342L667.713,23.055L672.031,20.413L677.708,18.835L680.788,16.783L686.465,16.033L693.138,14.297L696.731,11.652L696.701,9.797L699.509,4.781L704.491,0.79L704.491,0.751L706.545,0L706.605,0L706.635,0L706.726,0.04L706.877,0.119L706.877,0.198L710.259,0.395L713.913,3.003L714.516,5.61L717.868,8.573L717.898,8.573L719.318,7.743L719.318,7.664L719.348,7.506L719.408,7.506L719.408,7.467L719.68,7.467L719.167,8.573L719.016,8.77L720.254,10.942L714.094,13.823L715.17,15.896L714.396,13.705L720.284,10.942L722.609,12.244L725.93,13.073L726.112,13.073L727.803,14.455L731.124,15.205L732.302,15.402L732.453,15.283L733.479,15.402L737.133,15.757L736.952,18.006L736.801,18.282L737.888,20.689L737.797,22.858L739.76,24.435L743.746,25.027L743.836,24.987L743.987,25.382L743.987,25.46L742.78,26.564L742.357,26.84L742.206,27.116L740.756,27.865L736.801,28.141L740.694,27.869L740.666,27.944L738.824,28.732L737.224,29.836L737.042,30.309L737.042,30.388L736.982,30.427L736.197,30.86L735.865,31.136L735.865,31.215L735.865,31.412L735.865,31.491L735.865,31.53L734.325,33.54L734.325,33.579L734.264,33.658L734.174,33.737L734.144,33.737L732.151,35.706L732.121,35.706L732.121,35.785L732.03,35.785L731.969,35.825L731.879,35.864L731.788,35.864L731.517,36.337L731.456,36.376L731.456,36.455L731.426,36.455L730.158,38.385L728.98,45.471L730.762,56.052L732.392,60.218L734.234,61.319L733.389,67.094L732.453,67.722L732.392,67.722L731.003,68.311L731.607,71.531L727.47,76.163L725.236,84.597L725.417,86.361L722.216,91.927L716.691,96.747L716.268,102.66L713.067,106.457L713.037,108.766L715.362,112.834L712.131,117.644L712.524,119.286L711.467,125.734L709.474,131.008L708.93,136.161L707.722,138.269L705.669,150.711L704.582,152.582L704.433,157.921L704.612,157.921L704.612,157.999L704.673,157.999L703.374,162.868L701.623,167.267L700.777,172.988L698.241,175.633L697.214,181.078L697.154,181.156L697.124,181.156L695.584,182.516L695.795,189.24L697.214,189.862L695.856,190.716L695.795,190.716L695.252,190.872L695.01,191.144L694.95,191.183L694.406,192.154L694.406,192.192L694.406,192.27L694.346,192.27L692.383,193.086L692.383,193.358L688.669,202.792L685.589,207.37L684.744,208.65L684.582,208.986L684.562,209.038L684.502,209.155L682.358,212.218L679.006,213.614L679.157,215.514L679.188,215.553L679.339,218.653L676.983,222.025L673.481,225.163L666.898,229.074L664.573,236.119L662.489,238.054L659.591,247.53L655.544,257.925L655.665,265.493L655.424,273.52L656.027,283.662L651.528,288.017L651.287,290.829L653.159,295.297L649.777,292.216L644.523,290.29L641.986,293.487L641.292,288.749L639.088,283.739L640.447,281.927L641.201,278.881L638.937,268.813L636.129,264.876L635.525,260.783L629.576,253.636L620.366,248.342L618.072,245.635L616.199,245.442L609.103,239.679L604.665,233.371L604.333,229.887L606.114,227.331L599.592,214.157L598.263,208.146ZM708.991,281.812L711.708,284.895L711.708,284.934L711.708,285.011L711.708,285.088L710.923,286.475L707.209,284.471L707.149,284.471L706.786,284.548L706.726,284.548L704.431,282.467L704.522,279.537L704.582,279.614L709.172,279.383L709.232,280.655L709.232,280.732L708.991,281.734ZM704.25,229.926L704.34,230.274L704.019,231.434L700.777,228.803L702.982,228.183L704.582,229.074L704.733,229.268L704.582,229.422ZM612.908,258.968L613.15,257.114L615.294,256.573ZM586.366,159.635L585.853,162.05L584.101,160.219L590.443,155.31L589.144,158.116ZM549.588,152.933L549.678,150.165L552.336,150.75L552.97,148.879L552.909,148.879L553.392,147.709L551.037,143.614L548.591,144.004L546.115,146.461L545.542,151.647L543.911,148.684L545.3,145.018L547.293,145.213L549.014,142.6L551.309,141.898L554.51,150.36L556.986,147.865L560.036,152.27L556.05,152.115L553.574,154.024L553,156.518L550.554,156.596L552.577,152.933Z"></path></svg>